<svg width="22" height="22" viewBox="0 0 22 22" fill="none" xmlns="http://www.w3.org/2000/svg">
<mask id="mask0_20586_4995" style="mask-type:alpha" maskUnits="userSpaceOnUse" x="4" y="4" width="14" height="14">
<path d="M16.775 5.23413C16.6037 5.06248 16.3712 4.96601 16.1287 4.96601C15.8862 4.96601 15.6537 5.06248 15.4825 5.23413L11 9.70746L6.51747 5.22496C6.34621 5.05331 6.1137 4.95685 5.87122 4.95685C5.62875 4.95685 5.39624 5.05331 5.22497 5.22496C4.86747 5.58246 4.86747 6.15996 5.22497 6.51746L9.70747 11L5.22497 15.4825C4.86747 15.84 4.86747 16.4175 5.22497 16.775C5.58247 17.1325 6.15997 17.1325 6.51747 16.775L11 12.2925L15.4825 16.775C15.84 17.1325 16.4175 17.1325 16.775 16.775C17.1325 16.4175 17.1325 15.84 16.775 15.4825L12.2925 11L16.775 6.51746C17.1233 6.16913 17.1233 5.58246 16.775 5.23413Z" fill="black"/>
</mask>
<g mask="url(#mask0_20586_4995)">
<rect width="22" height="22" fill="white"/>
</g>
</svg>
