<svg width="24" height="24" viewBox="0 0 24 24" fill="none" xmlns="http://www.w3.org/2000/svg">
<mask id="mask0_20567_254324" style="mask-type:alpha" maskUnits="userSpaceOnUse" x="0" y="5" width="24" height="14">
<path d="M17.2651 6.0044C17.0783 5.81715 16.8246 5.71191 16.5601 5.71191C16.2956 5.71191 16.0419 5.81715 15.8551 6.0044L10.2151 11.6444L11.6251 13.0544L17.2651 7.4044C17.6451 7.0244 17.6451 6.3844 17.2651 6.0044Z" fill="#DADADA"/>
<path d="M1.08498 13.8243L5.26498 18.0043C5.65498 18.3943 6.28498 18.3943 6.67498 18.0043L7.37498 17.3043L2.49498 12.4043C2.30815 12.217 2.0545 12.1118 1.78998 12.1118C1.52546 12.1118 1.27181 12.217 1.08498 12.4043C0.69498 12.7943 0.69498 13.4343 1.08498 13.8243Z" fill="#DADADA"/>
<path d="M21.5049 5.99439L11.6249 15.8744L8.14488 12.4044C7.95805 12.2171 7.7044 12.1119 7.43988 12.1119C7.17537 12.1119 6.92171 12.2171 6.73488 12.4044C6.34488 12.7944 6.34488 13.4244 6.73488 13.8144L10.9149 17.9944C11.3049 18.3844 11.9349 18.3844 12.3249 17.9944L22.9149 7.41439C23.3049 7.02439 23.3049 6.39439 22.9149 6.00439H22.9049C22.5249 5.60439 21.8949 5.60439 21.5049 5.99439Z" fill="#DADADA"/>
</mask>
<g mask="url(#mask0_20567_254324)">
<rect width="24" height="24" fill="white"/>
</g>
</svg>
